<svg width="46" height="46" viewBox="0 0 46 46" fill="none" xmlns="http://www.w3.org/2000/svg">
<path d="M19.1667 7.66666C11.939 7.66666 8.32412 7.66666 6.07971 9.91299C3.83529 12.1593 3.83337 15.7722 3.83337 23C3.83337 30.2277 3.83337 33.8426 6.07971 36.087C8.32604 38.3314 11.939 38.3333 19.1667 38.3333H22.0417M26.8334 7.66666C34.0611 7.66666 37.676 7.66666 39.9204 9.91299C41.9597 11.9504 42.1475 15.1148 42.1667 21.0833" stroke="white" stroke-width="1.5" stroke-linecap="round"/>
<path d="M29.7083 26.8333V38.3333M29.7083 38.3333L33.5417 34.5M29.7083 38.3333L25.875 34.5M38.3333 38.3333V26.8333M38.3333 26.8333L42.1667 30.6666M38.3333 26.8333L34.5 30.6666" stroke="white" stroke-width="1.5" stroke-linecap="round" stroke-linejoin="round"/>
<path d="M19.1667 30.6667H11.5M3.83337 19.1667H13.4167M42.1667 19.1667H21.0834" stroke="white" stroke-width="1.5" stroke-linecap="round"/>
</svg>
