<svg width="60" height="44" viewBox="0 0 60 44" fill="none" xmlns="http://www.w3.org/2000/svg">
<path d="M39.1703 24.7913C38.7407 24.4605 38.2403 24.2335 37.7083 24.1283C37.1764 24.023 36.6273 24.0423 36.1041 24.1845L27.6289 26.125C27.9949 25.4993 28.1877 24.7874 28.1875 24.0625C28.1875 22.9685 27.7529 21.9193 26.9793 21.1457C26.2057 20.3721 25.1565 19.9375 24.0625 19.9375H15.4584C14.8262 19.9356 14.1998 20.0591 13.6156 20.3011C13.0314 20.543 12.5011 20.8985 12.0553 21.3469L7.96469 25.4375H2.75C2.20299 25.4375 1.67839 25.6548 1.29159 26.0416C0.904798 26.4284 0.6875 26.953 0.6875 27.5V34.375C0.6875 34.922 0.904798 35.4466 1.29159 35.8334C1.67839 36.2202 2.20299 36.4375 2.75 36.4375H20.625C20.6829 36.4379 20.7407 36.431 20.7969 36.4169L31.7969 33.6669C31.8319 33.6576 31.8664 33.6461 31.9 33.6325L38.5722 30.7897L38.61 30.7725C39.1476 30.5038 39.6079 30.1027 39.9476 29.6069C40.2874 29.1111 40.4953 28.5371 40.5519 27.9387C40.6084 27.3404 40.5118 26.7375 40.271 26.1869C40.0302 25.6362 39.6532 25.1559 39.1755 24.7913H39.1703ZM2.0625 34.375V27.5C2.0625 27.3177 2.13493 27.1428 2.26386 27.0139C2.3928 26.8849 2.56766 26.8125 2.75 26.8125H7.5625V35.0625H2.75C2.56766 35.0625 2.3928 34.9901 2.26386 34.8611C2.13493 34.7322 2.0625 34.5573 2.0625 34.375ZM38.0067 29.5333L31.405 32.3469L20.5408 35.0625H8.9375V26.4103L13.0281 22.3197C13.3465 21.9994 13.7252 21.7454 14.1424 21.5726C14.5595 21.3997 15.0069 21.3113 15.4584 21.3125H24.0625C24.7918 21.3125 25.4913 21.6022 26.007 22.118C26.5228 22.6337 26.8125 23.3332 26.8125 24.0625C26.8125 24.7918 26.5228 25.4913 26.007 26.007C25.4913 26.5228 24.7918 26.8125 24.0625 26.8125H19.25C19.0677 26.8125 18.8928 26.8849 18.7639 27.0139C18.6349 27.1428 18.5625 27.3177 18.5625 27.5C18.5625 27.6823 18.6349 27.8572 18.7639 27.9861C18.8928 28.1151 19.0677 28.1875 19.25 28.1875H24.75C24.802 28.1876 24.8539 28.1819 24.9047 28.1703L36.4203 25.5217H36.4478C36.9638 25.3849 37.5122 25.4435 37.9876 25.6862C38.4631 25.929 38.8321 26.3388 39.0239 26.837C39.2157 27.3352 39.2167 27.8867 39.0267 28.3856C38.8368 28.8845 38.4692 29.2957 37.9947 29.5402L38.0067 29.5333ZM28.1875 15.8125C28.6948 15.8133 29.1997 15.7439 29.688 15.6063C29.9219 16.6835 30.4742 17.6656 31.2731 18.4251C32.0721 19.1847 33.0808 19.6866 34.1685 19.8658C35.2562 20.045 36.3727 19.8933 37.373 19.4302C38.3734 18.9671 39.2116 18.2141 39.7788 17.2689C40.346 16.3237 40.616 15.2298 40.5539 14.1292C40.4918 13.0286 40.1005 11.972 39.4305 11.0966C38.7606 10.2211 37.8431 9.56718 36.7969 9.21958C35.7508 8.87198 34.6244 8.84676 33.5638 9.14719C33.3439 8.13295 32.8415 7.20162 32.1147 6.4608C31.388 5.71998 30.4664 5.1999 29.4566 4.96065C28.4467 4.7214 27.3898 4.77274 26.4079 5.10874C25.426 5.44475 24.5592 6.0517 23.9077 6.85947C23.2561 7.66725 22.8464 8.64288 22.7258 9.67365C22.6053 10.7044 22.7789 11.7483 23.2264 12.6846C23.674 13.6209 24.3774 14.4115 25.2553 14.965C26.1331 15.5185 27.1497 15.8123 28.1875 15.8125ZM39.1875 14.4375C39.1875 15.2533 38.9456 16.0509 38.4923 16.7292C38.0391 17.4076 37.3948 17.9363 36.6411 18.2485C35.8873 18.5607 35.0579 18.6424 34.2578 18.4832C33.4576 18.3241 32.7226 17.9312 32.1457 17.3543C31.5688 16.7774 31.1759 16.0424 31.0168 15.2422C30.8576 14.4421 30.9393 13.6127 31.2515 12.8589C31.5637 12.1052 32.0924 11.4609 32.7708 11.0077C33.4491 10.5544 34.2467 10.3125 35.0625 10.3125C36.1565 10.3125 37.2057 10.7471 37.9793 11.5207C38.7529 12.2943 39.1875 13.3435 39.1875 14.4375ZM28.1875 6.1875C29.1762 6.1874 30.132 6.54239 30.8809 7.18783C31.6298 7.83326 32.122 8.72621 32.2678 9.70406C31.478 10.1688 30.8168 10.8235 30.3444 11.6088C29.8719 12.394 29.6032 13.2848 29.5625 14.2003C28.996 14.4012 28.3925 14.4758 27.7941 14.419C27.1957 14.3622 26.617 14.1754 26.0984 13.8715C25.5798 13.5676 25.1339 13.1541 24.7919 12.6598C24.4499 12.1656 24.22 11.6025 24.1183 11.0102C24.0167 10.4178 24.0457 9.8103 24.2034 9.2303C24.3611 8.6503 24.6436 8.11176 25.0312 7.65238C25.4188 7.193 25.9021 6.82388 26.4473 6.57085C26.9925 6.31781 27.5864 6.18698 28.1875 6.1875Z" fill="#1B1B1B"/>
<path d="M50.4027 2.56927L50.4132 12.8095L46.5695 9.29334M52.9733 12.8068L52.9627 2.56664L56.8064 6.08277" stroke="white" stroke-width="2" stroke-linecap="round" stroke-linejoin="round"/>
</svg>
