<svg width="49" height="49" viewBox="0 0 49 49" fill="none" xmlns="http://www.w3.org/2000/svg">
<path fill-rule="evenodd" clip-rule="evenodd" d="M37.1787 10.5963C36.313 10.7514 35.1309 11.1434 33.4078 11.7192L20.1573 16.1353C18.477 16.6947 17.2582 17.101 16.37 17.4481C15.4472 17.8074 15.043 18.0463 14.8735 18.2076C14.5758 18.4934 14.339 18.8364 14.1772 19.216C14.0155 19.5956 13.9321 20.004 13.9321 20.4167C13.9321 20.8293 14.0155 21.2377 14.1772 21.6174C14.339 21.997 14.5758 22.34 14.8735 22.6258C15.043 22.7891 15.4472 23.0259 16.37 23.3853C17.6482 23.8604 18.9369 24.3069 20.2349 24.7246C20.8311 24.9227 21.2435 25.0594 21.6171 25.2575C22.5221 25.7369 23.2619 26.4774 23.7405 27.3829C23.9405 27.7565 24.0773 28.1689 24.2754 28.7651L24.3019 28.8447C24.8613 30.5229 25.2676 31.7439 25.6147 32.6299C25.974 33.5528 26.2129 33.957 26.3763 34.1265C26.662 34.4238 27.0049 34.6604 27.3843 34.822C27.7638 34.9836 28.1719 35.0669 28.5843 35.0669C28.9967 35.0669 29.4049 34.9836 29.7843 34.822C30.1637 34.6604 30.5066 34.4238 30.7924 34.1265C30.9557 33.957 31.1925 33.5528 31.5519 32.6299C31.899 31.7439 32.3073 30.5229 32.8647 28.8447L37.2828 15.5922C37.8565 13.8691 38.2485 12.6849 38.4017 11.8213C38.5568 10.9474 38.4037 10.7494 38.3261 10.6739C38.2506 10.5963 38.0525 10.4411 37.1787 10.5963ZM36.8214 8.58932C37.8627 8.40557 38.955 8.41578 39.7716 9.2304C40.5863 10.0471 40.5965 11.1394 40.4127 12.1806C40.229 13.2117 39.788 14.5367 39.249 16.1557L39.2183 16.2374L34.8022 29.4919L34.792 29.5225C34.3748 30.8165 33.9289 32.101 33.4547 33.3752C33.0974 34.2857 32.7401 35.0493 32.2644 35.5434C31.7881 36.0393 31.2165 36.4338 30.584 36.7033C29.9514 36.9729 29.2709 37.1118 28.5833 37.1118C27.8957 37.1118 27.2152 36.9729 26.5826 36.7033C25.9501 36.4338 25.3785 36.0393 24.9022 35.5434C24.4285 35.0473 24.0692 34.2857 23.7119 33.3752C23.3444 32.4339 22.9218 31.164 22.3746 29.5225L22.3644 29.4919C22.1296 28.7875 22.0459 28.5466 21.9356 28.3404C21.6486 27.7968 21.2047 27.3522 20.6616 27.0644C20.4575 26.9562 20.2145 26.8724 19.5101 26.6356L19.4795 26.6274C18.1858 26.2096 16.9013 25.7638 15.6269 25.2902C14.7163 24.9329 13.9527 24.5756 13.4586 24.0999C12.9627 23.6236 12.5682 23.052 12.2987 22.4194C12.0292 21.7868 11.8903 21.1063 11.8903 20.4187C11.8903 19.7312 12.0292 19.0507 12.2987 18.4181C12.5682 17.7855 12.9627 17.2139 13.4586 16.7376C13.9548 16.2619 14.7163 15.9046 15.6269 15.5473C16.5681 15.1798 17.838 14.7572 19.4795 14.21L19.5101 14.1998L32.7626 9.7837L32.8463 9.75511C34.4653 9.21611 35.7904 8.77511 36.8214 8.59136" fill="white"/>
</svg>
